<?xml version="1.0" encoding="UTF-8"?>
<svg version="1.1" xmlns="http://www.w3.org/2000/svg" width="198" height="210">
<path d="M0 0 C1.73360665 3.46721329 0.48361845 7.23852315 0 11 C-2.97 11 -5.94 11 -9 11 C-9.33 11.66 -9.66 12.32 -10 13 C-10.495 13.37125 -10.99 13.7425 -11.5 14.125 C-13.78977063 16.65215603 -13.78977063 16.65215603 -14 24 C16.36 24 46.72 24 78 24 C76.72134768 17.04546305 76.72134768 17.04546305 73 12 C70.50592748 11.3049261 70.50592748 11.3049261 67.8125 11.25 C66.224375 11.1675 64.63625 11.085 63 11 C63 7.7 63 4.4 63 1 C64.89510699 0.91839252 66.79124504 0.86053541 68.6875 0.8125 C69.74324219 0.77769531 70.79898438 0.74289063 71.88671875 0.70703125 C75.38612978 1.03633593 77.13885567 2.02456643 80 4 C80.7425 4.33 81.485 4.66 82.25 5 C84 6 84 6 85 9 C85.34659668 9.60102539 85.69319336 10.20205078 86.05029297 10.82128906 C87.27066816 13.62093641 87.22642172 15.81067116 87.1953125 18.859375 C87.18886719 19.97441406 87.18242188 21.08945312 87.17578125 22.23828125 C87.15064453 23.97658203 87.15064453 23.97658203 87.125 25.75 C87.11597656 26.92433594 87.10695313 28.09867188 87.09765625 29.30859375 C87.07410063 32.20593536 87.04120652 35.10286441 87 38 C82.05 38.495 82.05 38.495 77 39 C77.33 37.35 77.66 35.7 78 34 C47.64 34 17.28 34 -14 34 C-13.896875 43.3225 -13.79375 52.645 -13.6875 62.25 C-13.66260498 65.18938477 -13.63770996 68.12876953 -13.61206055 71.15722656 C-13.57977801 73.48504249 -13.54640535 75.81284366 -13.51171875 78.140625 C-13.50547485 79.35089355 -13.49923096 80.56116211 -13.49279785 81.80810547 C-13.47285767 82.96487793 -13.45291748 84.12165039 -13.43237305 85.31347656 C-13.42126999 86.31719299 -13.41016693 87.32090942 -13.39872742 88.3550415 C-12.93643606 91.42165145 -12.14947553 92.7901809 -10 95 C-6.61777868 96.12740711 -3.98361297 96.15917691 -0.41723633 96.20532227 C0.57828499 96.22017166 0.57828499 96.22017166 1.59391785 96.23532104 C3.78523199 96.2668809 5.97656781 96.29167155 8.16796875 96.31640625 C9.68826355 96.33698055 11.20855269 96.35797715 12.72883606 96.37937927 C16.72858087 96.43455084 20.72837689 96.48398175 24.72821045 96.53222656 C28.81038974 96.5824775 32.89249474 96.63814481 36.97460938 96.69335938 C44.9830101 96.80088082 52.99147299 96.90233911 61 97 C61 99.97 61 102.94 61 106 C51.43805415 106.11590588 41.87635051 106.20472098 32.31385517 106.25906086 C27.87345358 106.2851429 23.43353297 106.32051482 18.9934082 106.37719727 C14.70750904 106.43156779 10.42207217 106.46143102 6.13585472 106.47438622 C4.50154531 106.48361715 2.8672609 106.50164355 1.23314857 106.52865028 C-1.05825623 106.56501015 -3.34775692 106.56994283 -5.6394043 106.56762695 C-6.94290329 106.57873001 -8.24640228 106.58983307 -9.58940125 106.60127258 C-13.85603815 105.84908448 -15.22019904 104.22222759 -18 101 C-19.0828125 100.5359375 -19.0828125 100.5359375 -20.1875 100.0625 C-23.06255954 98.37712027 -23.1688766 96.1575301 -24 93 C-24.18306513 90.31494579 -24.27389923 87.73661012 -24.25878906 85.05444336 C-24.2622937 84.28131302 -24.26579834 83.50818268 -24.26940918 82.71162415 C-24.27816984 80.17093778 -24.27239806 77.63053267 -24.265625 75.08984375 C-24.26697314 73.31677701 -24.26891492 71.54371062 -24.27142334 69.77064514 C-24.27436681 66.06117216 -24.27010147 62.35179572 -24.26074219 58.64233398 C-24.24933978 53.89211068 -24.25591703 49.14211321 -24.26788712 44.39189816 C-24.2751196 40.73302005 -24.27281154 37.07419535 -24.26763153 33.41531563 C-24.26629931 31.66385433 -24.26792776 29.91238814 -24.27259064 28.16093254 C-24.27767961 25.7125453 -24.26991281 23.26452228 -24.25878906 20.81616211 C-24.26283752 20.09550568 -24.26688599 19.37484924 -24.27105713 18.63235474 C-24.23774722 14.66719624 -23.88253948 11.5220299 -22 8 C-19.9375 6.875 -19.9375 6.875 -18 6 C-17.67 5.01 -17.34 4.02 -17 3 C-15.35 3 -13.7 3 -12 3 C-11.67 2.34 -11.34 1.68 -11 1 C-8.49609375 0.5859375 -8.49609375 0.5859375 -5.4375 0.375 C-4.42558594 0.30023438 -3.41367187 0.22546875 -2.37109375 0.1484375 C-1.58863281 0.09945312 -0.80617188 0.05046875 0 0 Z " fill="#277B2C" transform="translate(36,33)"/>
<path d="M0 0 C1.75 2 1.75 2 3 4 C3.50950195 4.36472412 4.01900391 4.72944824 4.54394531 5.10522461 C6.8866002 8.1537398 6.50212376 11.61693118 6.546875 15.31640625 C6.57735931 16.53480446 6.57735931 16.53480446 6.60845947 17.77781677 C6.64864155 19.49325152 6.68181639 21.20886268 6.70849609 22.92456055 C6.74990388 25.55639064 6.81251499 28.18705246 6.87890625 30.81835938 C6.91530293 32.48434836 6.95050012 34.15036408 6.984375 35.81640625 C7.0019989 36.60600235 7.0196228 37.39559845 7.03778076 38.2091217 C7.11694802 43.76610397 7.11694802 43.76610397 6 46 C0.78561957 46.0988364 -4.42821643 46.17145206 -9.64331055 46.21972656 C-11.41749569 46.23984903 -13.19161446 46.2671503 -14.96557617 46.30175781 C-17.51497767 46.35024992 -20.06350295 46.37296153 -22.61328125 46.390625 C-23.40712723 46.41127014 -24.20097321 46.43191528 -25.01887512 46.45318604 C-30.44108676 46.45539817 -30.44108676 46.45539817 -33.00366211 44.36743164 C-34.27626779 41.34355092 -34.35581903 39.01245062 -34.328125 35.73046875 C-34.32039063 33.90225586 -34.32039063 33.90225586 -34.3125 32.03710938 C-34.291875 30.76673828 -34.27125 29.49636719 -34.25 28.1875 C-34.24484375 26.92873047 -34.2396875 25.66996094 -34.234375 24.37304688 C-34.09805559 8.21067667 -34.09805559 8.21067667 -30.5625 4.3125 C-29.716875 3.549375 -28.87125 2.78625 -28 2 C-27.69964844 1.319375 -27.39929688 0.63875 -27.08984375 -0.0625 C-26 -2 -26 -2 -24.1875 -2.86328125 C-15.65073666 -4.61636658 -7.72586139 -4.2571073 0 0 Z " fill="#277F2D" transform="translate(158,93)"/>
<path d="M0 0 C-0.33 13.53 -0.66 27.06 -1 41 C-20 40 -20 40 -23 37 C-23.35644531 34.55151367 -23.35644531 34.55151367 -23.328125 31.66796875 C-23.32296875 30.62189453 -23.3178125 29.57582031 -23.3125 28.49804688 C-23.291875 27.40556641 -23.27125 26.31308594 -23.25 25.1875 C-23.24484375 24.10662109 -23.2396875 23.02574219 -23.234375 21.91210938 C-23.18457923 16.84227776 -23.09556423 11.97262439 -22 7 C-20.25 5.9375 -20.25 5.9375 -18 5 C-17.0409375 3.700625 -17.0409375 3.700625 -16.0625 2.375 C-13 0 -13 0 0 0 Z " fill="#2A7D2F" transform="translate(123,99)"/>
<path d="M0 0 C2.29225435 0.11371497 4.58382388 0.24130964 6.875 0.375 C8.15117187 0.44460937 9.42734375 0.51421875 10.7421875 0.5859375 C14 1 14 1 16 3 C16.66 3.33 17.32 3.66 18 4 C21.34107989 6.9234449 22.83755176 9.54756345 23.3347168 13.99267578 C23.37250244 15.1320459 23.41028809 16.27141602 23.44921875 17.4453125 C23.49240234 18.68667969 23.53558594 19.92804688 23.58007812 21.20703125 C23.63325195 23.14642578 23.63325195 23.14642578 23.6875 25.125 C23.73455078 26.42566406 23.78160156 27.72632813 23.83007812 29.06640625 C24.13667288 38.72665423 24.13667288 38.72665423 23 41 C12.605 41.495 12.605 41.495 2 42 C1.93941406 39.38707031 1.87882813 36.77414063 1.81640625 34.08203125 C1.75454795 31.54351099 1.69118885 29.00503231 1.62768555 26.46655273 C1.58444931 24.70617392 1.5427665 22.94575622 1.50268555 21.18530273 C1.44470815 18.65075987 1.38109373 16.11641066 1.31640625 13.58203125 C1.29969376 12.79850784 1.28298126 12.01498444 1.26576233 11.2077179 C1.16229193 7.3667745 0.91421816 3.73820878 0 0 Z " fill="#267B2C" transform="translate(165,98)"/>
<path d="M0 0 C2.31 0 4.62 0 7 0 C8.67275302 3.62222211 10.33716251 7.2482166 12 10.875 C12.47695312 11.90753906 12.95390625 12.94007813 13.4453125 14.00390625 C13.89648438 14.99003906 14.34765625 15.97617188 14.8125 16.9921875 C15.44091797 18.35899658 15.44091797 18.35899658 16.08203125 19.75341797 C17 22 17 22 17 24 C17.66 24 18.32 24 19 24 C19.5259375 22.2365625 19.5259375 22.2365625 20.0625 20.4375 C22.39955405 13.35826832 25.77472581 6.70680304 29 0 C31.31 0 33.62 0 36 0 C36 11.22 36 22.44 36 34 C34.02 34 32.04 34 30 34 C29.505 24.595 29.505 24.595 29 15 C28.43410156 16.28777344 27.86820313 17.57554687 27.28515625 18.90234375 C26.5443926 20.58078291 25.80350055 22.25916541 25.0625 23.9375 C24.68931641 24.78763672 24.31613281 25.63777344 23.93164062 26.51367188 C23.57392578 27.32255859 23.21621094 28.13144531 22.84765625 28.96484375 C22.51773682 29.7137085 22.18781738 30.46257324 21.84790039 31.23413086 C21 33 21 33 20 34 C18.35 34 16.7 34 15 34 C12.36 28.06 9.72 22.12 7 16 C6.67 21.94 6.34 27.88 6 34 C4.02 34 2.04 34 0 34 C0 22.78 0 11.56 0 0 Z " fill="#029900" transform="translate(79,156)"/>
<path d="M0 0 C0.598125 0.28875 1.19625 0.5775 1.8125 0.875 C2.8025 1.205 3.7925 1.535 4.8125 1.875 C4.421875 7.9296875 4.421875 7.9296875 3.8125 9.875 C2.0859375 10.83203125 2.0859375 10.83203125 -0.1875 11.875 C-1.94670452 13.42320959 -3.65171728 15.03415362 -5.3125 16.6875 C-6.18132812 17.53957031 -7.05015625 18.39164063 -7.9453125 19.26953125 C-10.29200358 21.69469774 -10.29200358 21.69469774 -11.1796875 24.51171875 C-12.52166249 27.65859808 -14.23978379 28.2320817 -17.1875 29.875 C-19.51541299 32.18298223 -21.7056977 34.58258795 -23.90625 37.01171875 C-26.1875 38.875 -26.1875 38.875 -28.59887695 39.1965332 C-31.81264276 38.79735094 -32.69455441 37.93062055 -34.88671875 35.59375 C-35.53833984 34.91699219 -36.18996094 34.24023438 -36.86132812 33.54296875 C-37.8580957 32.46982422 -37.8580957 32.46982422 -38.875 31.375 C-40.20787751 29.96461484 -41.54490943 28.55814034 -42.88671875 27.15625 C-43.47283936 26.52783203 -44.05895996 25.89941406 -44.6628418 25.25195312 C-46.09247932 23.65158532 -46.09247932 23.65158532 -48.1875 23.875 C-48.54924071 17.48424751 -48.54924071 17.48424751 -47 14.875 C-45.1875 13.875 -45.1875 13.875 -42.90625 13.99609375 C-39.25101115 15.17774424 -37.50530528 17.16691177 -34.875 19.9375 C-33.99199219 20.85660156 -33.10898437 21.77570313 -32.19921875 22.72265625 C-31.20341797 23.78806641 -31.20341797 23.78806641 -30.1875 24.875 C-26.03898495 23.50195166 -23.56354334 21.65725091 -20.5 18.5625 C-19.73300781 17.80324219 -18.96601562 17.04398438 -18.17578125 16.26171875 C-16.1607279 13.84286296 -15.31144673 11.77974546 -14.1875 8.875 C-11.4375 6.875 -11.4375 6.875 -8.1875 4.875 C-7.1350758 3.94959252 -6.09316979 3.01207648 -5.0625 2.0625 C-2.1875 -0.125 -2.1875 -0.125 0 0 Z " fill="#267D2C" transform="translate(89.1875,76.125)"/>
<path d="M0 0 C24.09 0.33 48.18 0.66 73 1 C73 3.97 73 6.94 73 10 C48.58 10 24.16 10 -1 10 C-2 4 -2 4 0 0 Z " fill="#2B8331" transform="translate(24,129)"/>
<path d="M0 0 C3.1875 1.6875 3.1875 1.6875 5 4 C5.8125 6.75 5.8125 6.75 6 9 C2.6875 9.1875 2.6875 9.1875 -1 9 C-2.625 7.5 -2.625 7.5 -4 6 C-6.62570704 5.74930087 -6.62570704 5.74930087 -9 6 C-9.33 7.65 -9.66 9.3 -10 11 C-9.01 11.4125 -8.02 11.825 -7 12.25 C-4.1798928 13.46437269 -1.39108216 14.7293882 1.375 16.0625 C2.04273438 16.38347656 2.71046875 16.70445312 3.3984375 17.03515625 C5 18 5 18 6 20 C6.35983656 24.39000602 6.53628918 26.92742164 4.5625 30.875 C0.95531891 33.86632091 -2.33419533 34.82407622 -7 35 C-11.40501726 34.2607497 -14.19421182 33.00723523 -17 29.5 C-18 27 -18 27 -18 24 C-15.69 24 -13.38 24 -11 24 C-10.67 25.32 -10.34 26.64 -10 28 C-5.34947128 28.26932521 -5.34947128 28.26932521 -1 27 C-0.99651997 24.55972073 -0.99651997 24.55972073 -2 22 C-4.88498891 20.47526142 -4.88498891 20.47526142 -8.375 19.5 C-14.53952562 17.58640003 -14.53952562 17.58640003 -16.9140625 14.5625 C-18.45839415 10.91832173 -18.07954144 8.77839503 -17 5 C-12.99841128 -1.48533345 -6.89063261 -1.02930612 0 0 Z " fill="#029900" transform="translate(143,156)"/>
<path d="M0 0 C1.68017847 5.04053542 1.54684123 10.89542395 0 16 C-2 17 -2 17 -5 18 C-5.66 18.33 -6.32 18.66 -7 19 C-8.87379605 19.07033769 -10.75001102 19.0843022 -12.625 19.0625 C-13.62789062 19.05347656 -14.63078125 19.04445313 -15.6640625 19.03515625 C-16.43492187 19.02355469 -17.20578125 19.01195313 -18 19 C-18.29519531 18.39542969 -18.59039062 17.79085937 -18.89453125 17.16796875 C-20.0245771 14.87231464 -20.0245771 14.87231464 -21.6875 12.3125 C-23.38902402 8.01817748 -23.18234936 4.44492241 -22 0 C-21.34 -0.66 -20.68 -1.32 -20 -2 C-19.67 -2.66 -19.34 -3.32 -19 -4 C-11.65683926 -5.92320877 -5.89516168 -4.77227374 0 0 Z " fill="#267B2B" transform="translate(155,66)"/>
<path d="M0 0 C6.27 0 12.54 0 19 0 C19 1.65 19 3.3 19 5 C14.71 5 10.42 5 6 5 C6 7.97 6 10.94 6 14 C9.96 14 13.92 14 18 14 C18 15.65 18 17.3 18 19 C14.04 19 10.08 19 6 19 C6 22.3 6 25.6 6 29 C10.29 29 14.58 29 19 29 C19 30.65 19 32.3 19 34 C12.73 34 6.46 34 0 34 C0 22.78 0 11.56 0 0 Z " fill="#029900" transform="translate(49,156)"/>
<path d="M0 0 C1.22589844 0.01353516 1.22589844 0.01353516 2.4765625 0.02734375 C3.41628906 0.04474609 3.41628906 0.04474609 4.375 0.0625 C4.66375 0.660625 4.9525 1.25875 5.25 1.875 C6.42242026 4.25577792 6.42242026 4.25577792 8.375 7.0625 C8.73319554 11.80859085 8.47910808 15.75408822 6.375 20.0625 C2.30849174 22.69377005 -1.95138904 22.58179011 -6.625 22.0625 C-9 19.6875 -9 19.6875 -10.625 17.0625 C-11.285 16.4025 -11.945 15.7425 -12.625 15.0625 C-12.83543288 11.27470818 -12.95592454 7.65599627 -11.625 4.0625 C-9.625 2.0625 -9.625 2.0625 -6.625 1.0625 C-4.21954362 -0.14022819 -2.67503047 -0.03821472 0 0 Z " fill="#26792B" transform="translate(172.625,74.9375)"/>
<path d="M0 0 C1.09054688 0.02320312 2.18109375 0.04640625 3.3046875 0.0703125 C4.40039062 0.08835937 5.49609375 0.10640625 6.625 0.125 C7.46804687 0.14820312 8.31109375 0.17140625 9.1796875 0.1953125 C9.4684375 0.7934375 9.7571875 1.3915625 10.0546875 2.0078125 C11.22710776 4.38859042 11.22710776 4.38859042 13.1796875 7.1953125 C13.54389463 12.02105692 12.93455077 15.69847536 11.1796875 20.1953125 C10.1896875 20.1953125 9.1996875 20.1953125 8.1796875 20.1953125 C7.5196875 20.8553125 6.8596875 21.5153125 6.1796875 22.1953125 C1.20489758 23.02444415 1.20489758 23.02444415 -1.8203125 22.1953125 C-5.44984476 19.11478512 -7.54117821 15.74605853 -8.3828125 11.0703125 C-7.40161079 6.05528153 -5.66119615 0.3920496 0 0 Z " fill="#267A2B" transform="translate(115.8203125,74.8046875)"/>
<path d="M0 0 C11.55 0.33 23.1 0.66 35 1 C35 4.3 35 7.6 35 11 C23.78 11 12.56 11 1 11 C0.67 7.37 0.34 3.74 0 0 Z " fill="#26742A" transform="translate(50,33)"/>
<path d="M0 0 C4.875 2.75 4.875 2.75 6 5 C6.09572577 6.57062514 6.1307405 8.1452118 6.1328125 9.71875 C6.13474609 11.11673828 6.13474609 11.11673828 6.13671875 12.54296875 C6.13285156 13.51878906 6.12898438 14.49460937 6.125 15.5 C6.12886719 16.47582031 6.13273437 17.45164062 6.13671875 18.45703125 C6.13542969 19.38902344 6.13414063 20.32101563 6.1328125 21.28125 C6.13168457 22.13783203 6.13055664 22.99441406 6.12939453 23.87695312 C6 26 6 26 5 28 C2.03 28 -0.94 28 -4 28 C-5.18791439 23.24834243 -5.29838687 18.87538088 -5.375 14 C-5.41238281 13.09765625 -5.44976562 12.1953125 -5.48828125 11.265625 C-5.57702151 4.60024529 -5.57702151 4.60024529 -2.4765625 1.375 C-1.65929688 0.92125 -0.84203125 0.4675 0 0 Z " fill="#2A7B2F" transform="translate(43,22)"/>
<path d="M0 0 C3.375 -0.1875 3.375 -0.1875 7 0 C9.98175151 4.47262727 9.32927462 8.739478 9.3125 14 C9.32861328 15.010625 9.34472656 16.02125 9.36132812 17.0625 C9.36197266 18.031875 9.36261719 19.00125 9.36328125 20 C9.36775269 21.3303125 9.36775269 21.3303125 9.37231445 22.6875 C9 25 9 25 7.63745117 26.82421875 C6 28 6 28 3.4375 27.8125 C1 27 1 27 -1 25 C-1.24291992 22.80102539 -1.24291992 22.80102539 -1.23046875 20.09765625 C-1.22853516 19.12505859 -1.22660156 18.15246094 -1.22460938 17.15039062 C-1.21236328 16.13138672 -1.20011719 15.11238281 -1.1875 14.0625 C-1.18685547 13.04736328 -1.18621094 12.03222656 -1.18554688 10.98632812 C-1.14048812 3.42146437 -1.14048812 3.42146437 0 0 Z " fill="#297B2D" transform="translate(88,22)"/>
<path d="M0 0 C0.99 0.33 1.98 0.66 3 1 C2.65502183 6.34716157 2.65502183 6.34716157 2 9 C0.25 10.25 0.25 10.25 -2 11 C-3.68889872 12.3050581 -5.3603279 13.63360658 -7 15 C-7 14.34 -7 13.68 -7 13 C-7.66 13 -8.32 13 -9 13 C-9 12.34 -9 11.68 -9 11 C-9.66 11 -10.32 11 -11 11 C-11 10.34 -11 9.68 -11 9 C-13.12364481 8.77390663 -13.12364481 8.77390663 -14.625 10.5 C-15.305625 11.2425 -15.305625 11.2425 -16 12 C-16.66 11.67 -17.32 11.34 -18 11 C-5.65909091 -1.71487603 -5.65909091 -1.71487603 0 0 Z " fill="#237128" transform="translate(91,77)"/>
<path d="M0 0 C0.33 0.66 0.66 1.32 1 2 C-1.31 2.66 -3.62 3.32 -6 4 C-6.99 3.01 -7.98 2.02 -9 1 C-5.8035914 -0.06546953 -3.34252724 -0.07427838 0 0 Z " fill="#317435" transform="translate(147,89)"/>
<path d="M0 0 C2.26609984 4.53219967 1.92735976 6.17772925 1 11 C0.34 10.67 -0.32 10.34 -1 10 C-0.67 6.7 -0.34 3.4 0 0 Z " fill="#1A631C" transform="translate(13,116)"/>
<path d="M0 0 C0.33 0.66 0.66 1.32 1 2 C3.3140622 2.73075648 5.64828869 3.40138258 8 4 C8 4.33 8 4.66 8 5 C5.36 5 2.72 5 0 5 C0 3.35 0 1.7 0 0 Z " fill="#3D8B42" transform="translate(115,66)"/>
<path d="" fill="#000000" transform="translate(0,0)"/>
<path d="" fill="#000000" transform="translate(0,0)"/>
<path d="" fill="#000000" transform="translate(0,0)"/>
<path d="" fill="#000000" transform="translate(0,0)"/>
<path d="" fill="#000000" transform="translate(0,0)"/>
<path d="" fill="#000000" transform="translate(0,0)"/>
<path d="" fill="#000000" transform="translate(0,0)"/>
<path d="" fill="#000000" transform="translate(0,0)"/>
<path d="" fill="#000000" transform="translate(0,0)"/>
<path d="" fill="#000000" transform="translate(0,0)"/>
<path d="" fill="#000000" transform="translate(0,0)"/>
<path d="" fill="#000000" transform="translate(0,0)"/>
<path d="" fill="#000000" transform="translate(0,0)"/>
<path d="" fill="#000000" transform="translate(0,0)"/>
<path d="" fill="#000000" transform="translate(0,0)"/>
<path d="" fill="#000000" transform="translate(0,0)"/>
<path d="" fill="#000000" transform="translate(0,0)"/>
<path d="" fill="#000000" transform="translate(0,0)"/>
<path d="" fill="#000000" transform="translate(0,0)"/>
<path d="" fill="#000000" transform="translate(0,0)"/>
<path d="" fill="#000000" transform="translate(0,0)"/>
<path d="" fill="#000000" transform="translate(0,0)"/>
<path d="" fill="#000000" transform="translate(0,0)"/>
<path d="" fill="#000000" transform="translate(0,0)"/>
<path d="" fill="#000000" transform="translate(0,0)"/>
<path d="" fill="#000000" transform="translate(0,0)"/>
<path d="" fill="#000000" transform="translate(0,0)"/>
<path d="" fill="#000000" transform="translate(0,0)"/>
<path d="" fill="#000000" transform="translate(0,0)"/>
<path d="" fill="#000000" transform="translate(0,0)"/>
<path d="" fill="#000000" transform="translate(0,0)"/>
<path d="" fill="#000000" transform="translate(0,0)"/>
<path d="" fill="#000000" transform="translate(0,0)"/>
<path d="" fill="#000000" transform="translate(0,0)"/>
<path d="" fill="#000000" transform="translate(0,0)"/>
<path d="" fill="#000000" transform="translate(0,0)"/>
<path d="" fill="#000000" transform="translate(0,0)"/>
<path d="" fill="#000000" transform="translate(0,0)"/>
<path d="" fill="#000000" transform="translate(0,0)"/>
<path d="" fill="#000000" transform="translate(0,0)"/>
<path d="" fill="#000000" transform="translate(0,0)"/>
<path d="" fill="#000000" transform="translate(0,0)"/>
<path d="" fill="#000000" transform="translate(0,0)"/>
<path d="" fill="#000000" transform="translate(0,0)"/>
<path d="" fill="#000000" transform="translate(0,0)"/>
<path d="" fill="#000000" transform="translate(0,0)"/>
<path d="" fill="#000000" transform="translate(0,0)"/>
<path d="" fill="#000000" transform="translate(0,0)"/>
<path d="" fill="#000000" transform="translate(0,0)"/>
<path d="" fill="#000000" transform="translate(0,0)"/>
<path d="" fill="#000000" transform="translate(0,0)"/>
<path d="" fill="#000000" transform="translate(0,0)"/>
<path d="" fill="#000000" transform="translate(0,0)"/>
<path d="" fill="#000000" transform="translate(0,0)"/>
<path d="" fill="#000000" transform="translate(0,0)"/>
<path d="" fill="#000000" transform="translate(0,0)"/>
<path d="" fill="#000000" transform="translate(0,0)"/>
<path d="" fill="#000000" transform="translate(0,0)"/>
<path d="" fill="#000000" transform="translate(0,0)"/>
<path d="" fill="#000000" transform="translate(0,0)"/>
<path d="" fill="#000000" transform="translate(0,0)"/>
<path d="" fill="#000000" transform="translate(0,0)"/>
<path d="" fill="#000000" transform="translate(0,0)"/>
<path d="" fill="#000000" transform="translate(0,0)"/>
<path d="" fill="#000000" transform="translate(0,0)"/>
<path d="" fill="#000000" transform="translate(0,0)"/>
<path d="" fill="#000000" transform="translate(0,0)"/>
<path d="" fill="#000000" transform="translate(0,0)"/>
<path d="" fill="#000000" transform="translate(0,0)"/>
<path d="" fill="#000000" transform="translate(0,0)"/>
<path d="" fill="#000000" transform="translate(0,0)"/>
<path d="" fill="#000000" transform="translate(0,0)"/>
<path d="" fill="#000000" transform="translate(0,0)"/>
<path d="" fill="#000000" transform="translate(0,0)"/>
<path d="" fill="#000000" transform="translate(0,0)"/>
<path d="" fill="#000000" transform="translate(0,0)"/>
<path d="" fill="#000000" transform="translate(0,0)"/>
<path d="" fill="#000000" transform="translate(0,0)"/>
<path d="" fill="#000000" transform="translate(0,0)"/>
<path d="" fill="#000000" transform="translate(0,0)"/>
<path d="" fill="#000000" transform="translate(0,0)"/>
<path d="" fill="#000000" transform="translate(0,0)"/>
<path d="" fill="#000000" transform="translate(0,0)"/>
<path d="" fill="#000000" transform="translate(0,0)"/>
<path d="" fill="#000000" transform="translate(0,0)"/>
<path d="" fill="#000000" transform="translate(0,0)"/>
<path d="" fill="#000000" transform="translate(0,0)"/>
<path d="" fill="#000000" transform="translate(0,0)"/>
<path d="" fill="#000000" transform="translate(0,0)"/>
<path d="" fill="#000000" transform="translate(0,0)"/>
<path d="" fill="#000000" transform="translate(0,0)"/>
<path d="" fill="#000000" transform="translate(0,0)"/>
<path d="" fill="#000000" transform="translate(0,0)"/>
<path d="" fill="#000000" transform="translate(0,0)"/>
<path d="" fill="#000000" transform="translate(0,0)"/>
<path d="" fill="#000000" transform="translate(0,0)"/>
<path d="" fill="#000000" transform="translate(0,0)"/>
<path d="" fill="#000000" transform="translate(0,0)"/>
<path d="" fill="#000000" transform="translate(0,0)"/>
<path d="" fill="#000000" transform="translate(0,0)"/>
<path d="" fill="#000000" transform="translate(0,0)"/>
<path d="" fill="#000000" transform="translate(0,0)"/>
<path d="" fill="#000000" transform="translate(0,0)"/>
<path d="" fill="#000000" transform="translate(0,0)"/>
<path d="" fill="#000000" transform="translate(0,0)"/>
<path d="" fill="#000000" transform="translate(0,0)"/>
<path d="" fill="#000000" transform="translate(0,0)"/>
<path d="" fill="#000000" transform="translate(0,0)"/>
<path d="" fill="#000000" transform="translate(0,0)"/>
<path d="" fill="#000000" transform="translate(0,0)"/>
<path d="" fill="#000000" transform="translate(0,0)"/>
<path d="" fill="#000000" transform="translate(0,0)"/>
<path d="" fill="#000000" transform="translate(0,0)"/>
<path d="" fill="#000000" transform="translate(0,0)"/>
<path d="" fill="#000000" transform="translate(0,0)"/>
<path d="" fill="#000000" transform="translate(0,0)"/>
<path d="" fill="#000000" transform="translate(0,0)"/>
<path d="" fill="#000000" transform="translate(0,0)"/>
<path d="" fill="#000000" transform="translate(0,0)"/>
<path d="" fill="#000000" transform="translate(0,0)"/>
<path d="" fill="#000000" transform="translate(0,0)"/>
<path d="" fill="#000000" transform="translate(0,0)"/>
<path d="" fill="#000000" transform="translate(0,0)"/>
<path d="" fill="#000000" transform="translate(0,0)"/>
<path d="" fill="#000000" transform="translate(0,0)"/>
<path d="" fill="#000000" transform="translate(0,0)"/>
<path d="" fill="#000000" transform="translate(0,0)"/>
<path d="" fill="#000000" transform="translate(0,0)"/>
<path d="" fill="#000000" transform="translate(0,0)"/>
<path d="" fill="#000000" transform="translate(0,0)"/>
<path d="" fill="#000000" transform="translate(0,0)"/>
<path d="" fill="#000000" transform="translate(0,0)"/>
<path d="" fill="#000000" transform="translate(0,0)"/>
<path d="" fill="#000000" transform="translate(0,0)"/>
<path d="" fill="#000000" transform="translate(0,0)"/>
<path d="" fill="#000000" transform="translate(0,0)"/>
<path d="" fill="#000000" transform="translate(0,0)"/>
<path d="" fill="#000000" transform="translate(0,0)"/>
<path d="" fill="#000000" transform="translate(0,0)"/>
<path d="" fill="#000000" transform="translate(0,0)"/>
<path d="" fill="#000000" transform="translate(0,0)"/>
<path d="" fill="#000000" transform="translate(0,0)"/>
<path d="" fill="#000000" transform="translate(0,0)"/>
<path d="" fill="#000000" transform="translate(0,0)"/>
<path d="" fill="#000000" transform="translate(0,0)"/>
<path d="" fill="#000000" transform="translate(0,0)"/>
<path d="" fill="#000000" transform="translate(0,0)"/>
<path d="" fill="#000000" transform="translate(0,0)"/>
<path d="" fill="#000000" transform="translate(0,0)"/>
<path d="" fill="#000000" transform="translate(0,0)"/>
<path d="" fill="#000000" transform="translate(0,0)"/>
<path d="" fill="#000000" transform="translate(0,0)"/>
<path d="" fill="#000000" transform="translate(0,0)"/>
<path d="" fill="#000000" transform="translate(0,0)"/>
<path d="" fill="#000000" transform="translate(0,0)"/>
<path d="" fill="#000000" transform="translate(0,0)"/>
<path d="" fill="#000000" transform="translate(0,0)"/>
<path d="" fill="#000000" transform="translate(0,0)"/>
<path d="" fill="#000000" transform="translate(0,0)"/>
<path d="" fill="#000000" transform="translate(0,0)"/>
<path d="" fill="#000000" transform="translate(0,0)"/>
<path d="" fill="#000000" transform="translate(0,0)"/>
<path d="" fill="#000000" transform="translate(0,0)"/>
<path d="" fill="#000000" transform="translate(0,0)"/>
<path d="" fill="#000000" transform="translate(0,0)"/>
<path d="" fill="#000000" transform="translate(0,0)"/>
<path d="" fill="#000000" transform="translate(0,0)"/>
<path d="" fill="#000000" transform="translate(0,0)"/>
<path d="" fill="#000000" transform="translate(0,0)"/>
<path d="" fill="#000000" transform="translate(0,0)"/>
<path d="" fill="#000000" transform="translate(0,0)"/>
<path d="" fill="#000000" transform="translate(0,0)"/>
<path d="" fill="#000000" transform="translate(0,0)"/>
<path d="" fill="#000000" transform="translate(0,0)"/>
<path d="" fill="#000000" transform="translate(0,0)"/>
<path d="" fill="#000000" transform="translate(0,0)"/>
<path d="" fill="#000000" transform="translate(0,0)"/>
<path d="" fill="#000000" transform="translate(0,0)"/>
<path d="" fill="#000000" transform="translate(0,0)"/>
<path d="" fill="#000000" transform="translate(0,0)"/>
<path d="" fill="#000000" transform="translate(0,0)"/>
<path d="" fill="#000000" transform="translate(0,0)"/>
<path d="" fill="#000000" transform="translate(0,0)"/>
<path d="" fill="#000000" transform="translate(0,0)"/>
<path d="" fill="#000000" transform="translate(0,0)"/>
<path d="" fill="#000000" transform="translate(0,0)"/>
</svg>
